<svg id="Layer_1" data-name="Layer 1" xmlns="http://www.w3.org/2000/svg" viewBox="0 0 142 165"><defs><style>.cls-1{fill:none;}.cls-2{fill:#2fcc5a;}</style></defs><title>ShopGun_Logo_Green</title><rect class="cls-1" width="142" height="165"/><path class="cls-2" d="M82.15,70.36l-13.7,13a4.3,4.3,0,0,0-.2,6.08h0l.2.2a5,5,0,0,0,6.62,0L86.81,78.51h0l2-1.85a4.3,4.3,0,0,0,.2-6.08h0l-.2-.2a4.92,4.92,0,0,0-6.64,0Z"/><path class="cls-2" d="M78.17,92.52a4.28,4.28,0,0,0-.23,6l.23.23a5,5,0,0,0,6.64,0l11.72-11a4.31,4.31,0,0,0,.2-6.09l-.2-.2a4.92,4.92,0,0,0-6.64,0Z"/><path class="cls-2" d="M82.16,104.86v-.68h-.71a9.24,9.24,0,0,1-6.4-2.5,8.27,8.27,0,0,1-2.61-6,6.52,6.52,0,0,1,0-.67h-.72a9.25,9.25,0,0,1-6.39-2.5,8.25,8.25,0,0,1-.44-11.66h0q.21-.23.44-.44L76.06,70.25l28.11-26.54a4.3,4.3,0,0,0,.2-6.08h0l-.2-.2a4.89,4.89,0,0,0-6.64,0L57.78,75a25.17,25.17,0,0,1,1.68,15.35,15.52,15.52,0,0,1,3.06,21.52,2.26,2.26,0,0,1-3,.51,2,2,0,0,1-.61-2.76l.07-.11A11.58,11.58,0,0,0,56.5,93.35q-.32-.24-.66-.45A2,2,0,0,1,55,90.72c2.32-8.89-1.2-18-9.41-24.34a5.79,5.79,0,0,0-7.86.79,5,5,0,0,0-1.21,3.88,5.17,5.17,0,0,0,2,3.56,12.55,12.55,0,0,1,2.63,16.77l-.1.1a23,23,0,0,0,3,30.38,26.34,26.34,0,0,0,35.79,0l9.21-8.7a9.09,9.09,0,0,1-4.26-2.25A8.27,8.27,0,0,1,82.16,104.86Z"/><path class="cls-2" d="M114.67,95.25a13.19,13.19,0,0,0-4.25-8.61,15.12,15.12,0,0,0-3.36-2.4,12.64,12.64,0,0,0-4-8.91,13.87,13.87,0,0,0-3.73-2.51,12.64,12.64,0,0,0-4-8.5L110.62,49.8a12.59,12.59,0,0,0,.7-17.79h0q-.33-.36-.69-.69a14.39,14.39,0,0,0-19.56,0l-34.83,33a38.46,38.46,0,0,0-5-4.58,15.19,15.19,0,0,0-9.17-3.18,9.81,9.81,0,0,0-1.52.08,14.86,14.86,0,0,0-9.94,5.1A13.32,13.32,0,0,0,27.37,72a13.65,13.65,0,0,0,5.38,9.37,4.29,4.29,0,0,1,.94,5l-.11.11-.22.39A31.28,31.28,0,0,0,37.62,128a35.83,35.83,0,0,0,48.69,0l24.48-23.18.4-.38.11-.14A11.68,11.68,0,0,0,114.67,95.25Zm-7,6.16-.06.07-.06.06h0L82.94,124.78a30.93,30.93,0,0,1-42,0,27,27,0,0,1-3.5-35.64l.07-.08a8.56,8.56,0,0,0-1.76-11.24,9.27,9.27,0,0,1-3.69-6.33,9,9,0,0,1,2.17-6.91A10.07,10.07,0,0,1,41,61.13a10.21,10.21,0,0,1,7.27,2.07,32.34,32.34,0,0,1,7.42,8l38.8-36.69a9.44,9.44,0,0,1,12.8,0,8.26,8.26,0,0,1,.44,11.67q-.21.23-.44.44L87.61,65.2a9.08,9.08,0,0,1,4.26,2.25A8.22,8.22,0,0,1,94.06,76a9.23,9.23,0,0,1,5.51,2.46,8.28,8.28,0,0,1,2.64,6.06,8.13,8.13,0,0,1-.45,2.67,9.84,9.84,0,0,1,5.3,2.61,8.78,8.78,0,0,1,2.86,5.71,7.37,7.37,0,0,1-2.29,5.85Z"/><path class="cls-2" d="M100.48,91.25a3.8,3.8,0,0,0-2.68,1.1l-9.9,9.37a4.28,4.28,0,0,0-.22,6l.22.22a5,5,0,0,0,6.63,0l9.88-9.35h0a3.42,3.42,0,0,0,1.15-2.79,4.83,4.83,0,0,0-1.6-3.07A5.27,5.27,0,0,0,100.48,91.25Z"/></svg>